<svg width="21" height="17" viewBox="0 0 21 17" fill="none" xmlns="http://www.w3.org/2000/svg">
<path d="M20.625 8.46825C20.625 8.94287 20.2723 9.33512 19.8147 9.39719L19.6875 9.40575L3.2075 9.405L9.16123 15.3344C9.52814 15.6997 9.52942 16.2933 9.16409 16.6602C8.83197 16.9938 8.31121 17.0252 7.94361 16.7536L7.83827 16.6631L0.275767 9.13309C0.227403 9.08494 0.185396 9.03282 0.149744 8.97778C0.139674 8.96121 0.129423 8.94427 0.119705 8.92698C0.110767 8.91216 0.10269 8.89677 0.0950694 8.88121C0.0844859 8.85857 0.0741451 8.83519 0.0647569 8.81132C0.0571284 8.79292 0.0507589 8.77503 0.0449491 8.75699C0.0380419 8.73462 0.031331 8.71079 0.0255585 8.68659C0.021267 8.6697 0.0178682 8.65343 0.0149035 8.63711C0.0107345 8.61282 0.00718593 8.58769 0.00465393 8.56225C0.00246768 8.54285 0.00115176 8.52364 0.000424385 8.5044C0.000236385 8.49273 0 8.48052 0 8.46825L0.000469685 8.43194C0.00118831 8.41354 0.00244497 8.39515 0.00424147 8.37681L0 8.46825C0 8.40909 0.00547986 8.35121 0.0159597 8.29509C0.0183901 8.28169 0.0212861 8.26793 0.0244927 8.25422C0.0311524 8.226 0.0388484 8.19882 0.0477099 8.17218C0.0520594 8.15894 0.0571263 8.1448 0.062542 8.13076C0.0734975 8.10255 0.0854051 8.07566 0.098505 8.04947C0.104591 8.03715 0.111407 8.02426 0.118544 8.01149C0.13026 7.99067 0.142329 7.97088 0.155091 7.95159C0.164096 7.93794 0.174067 7.92373 0.184479 7.90975L0.192592 7.89895C0.21785 7.86595 0.245251 7.83468 0.274587 7.80534L0.275712 7.80447L7.83821 0.273216C8.20508 -0.0921414 8.79868 -0.0909125 9.16403 0.275961C9.49618 0.609483 9.52536 1.13037 9.25228 1.49682L9.16129 1.60178L3.21 7.53L19.6875 7.53075C20.2053 7.53075 20.625 7.95049 20.625 8.46825Z" fill="#16205B"/>
</svg>
