<svg width="60" height="40" viewBox="0 0 60 40" fill="none" xmlns="http://www.w3.org/2000/svg">
<path d="M51.999 4.00015V2.00008C51.999 0.89583 51.1042 0 49.9989 0L2.00008 0.000528857C0.894761 0.000528857 0 0.895885 0 2.0006V30.0001C0 31.1043 0.894828 32.0001 2.00008 32.0001H4.00015V9.99969C4.00015 6.69164 6.69152 3.99987 9.99998 3.99987L51.999 4.00015Z" fill="#16205B"/>
<path d="M8.00098 38.0001C8.00098 39.1043 8.89581 40.0001 10.0011 40.0001H57.9999C59.1052 40.0001 60 39.1048 60 38.0001L59.9989 22H8.00073L8.00098 38.0001ZM42.5004 32.0008H50.4999C51.6052 32.0008 52.5 32.8961 52.5 34.0009C52.5 35.1051 51.6051 36.0009 50.4999 36.0009H42.5004C41.3951 36.0009 40.5003 35.1056 40.5003 34.0009C40.5008 32.8961 41.3951 32.0008 42.5004 32.0008V32.0008ZM25.5011 32.0008H27.5012C28.6065 32.0008 29.5013 32.8961 29.5013 34.0009C29.5013 35.1051 28.6065 36.0009 27.5012 36.0009H25.5011C24.3958 36.0009 23.5011 35.1056 23.5011 34.0009C23.5011 32.8961 24.3959 32.0008 25.5011 32.0008ZM17.5016 32.0008H19.5017C20.607 32.0008 21.5018 32.8961 21.5018 34.0009C21.5018 35.1051 20.607 36.0009 19.5017 36.0009H17.5016C16.3963 36.0009 15.5016 35.1056 15.5016 34.0009C15.5016 32.8961 16.3964 32.0008 17.5016 32.0008Z" fill="#D33838"/>
<path d="M57.9993 7.99939H10.0004C8.89513 7.99939 8.00037 8.89475 8.00037 9.99947V17.999H59.9999V9.99947C60.0004 8.89522 59.1056 7.99939 57.9999 7.99939H57.9993Z" fill="#D33838"/>
</svg>
