<svg width="60" height="57" viewBox="0 0 60 57" fill="none" xmlns="http://www.w3.org/2000/svg">
<path d="M54.8798 13.8788H5.12023C3.7619 13.8788 2.45953 14.4181 1.49938 15.3782C0.539271 16.3383 0 17.6407 0 18.999V51.4254C0 52.7837 0.539286 54.0861 1.49938 55.0462C2.4595 56.0063 3.76192 56.5456 5.12023 56.5456H54.8798C56.2381 56.5456 57.5405 56.0063 58.5006 55.0462C59.4607 54.0861 60 52.7837 60 51.4254V18.999C60 17.6407 59.4607 16.3383 58.5006 15.3782C57.5405 14.4181 56.2381 13.8788 54.8798 13.8788V13.8788ZM56 51.4251C55.9929 52.0412 55.4958 52.5382 54.8798 52.5453H5.12023C4.50416 52.5382 4.00714 52.0412 3.99999 51.4251V18.9987C4.00714 18.3827 4.50416 17.8856 5.12023 17.8785H54.8798C55.4958 17.8856 55.9929 18.3827 56 18.9987V51.4251Z" fill="#D33838"/>
<path d="M51.8138 26.0648C50.8811 25.8374 50.0389 25.3338 49.3966 24.6201C48.7544 23.9064 48.3425 23.016 48.2139 22.0647C48.1235 21.5469 47.6729 21.1695 47.1473 21.1713H12.8543C12.3287 21.1695 11.8781 21.5469 11.7876 22.0647C11.659 23.0159 11.2471 23.9064 10.6049 24.6201C9.96262 25.3339 9.12036 25.8374 8.18768 26.0648C7.69066 26.1713 7.3353 26.61 7.33411 27.1177V43.305C7.3353 43.8127 7.69065 44.2514 8.18768 44.358C9.12041 44.5854 9.96259 45.0889 10.6049 45.8026C11.2472 46.5163 11.659 47.4067 11.7876 48.358C11.8781 48.8759 12.3287 49.2532 12.8543 49.2515H47.1473C47.6729 49.2533 48.1234 48.8759 48.2139 48.358C48.3425 47.4068 48.7544 46.5164 49.3966 45.8026C50.0389 45.0889 50.8812 44.5854 51.8138 44.358C52.3109 44.2514 52.6662 43.8128 52.6674 43.305V27.1177C52.6662 26.61 52.3109 26.1713 51.8138 26.0648ZM37.1473 36.8915V36.8909C36.7479 38.5992 35.7503 40.1081 34.3355 41.1444C32.9206 42.1813 31.1807 42.6772 29.4319 42.5432C27.683 42.4087 26.0396 41.6533 24.7992 40.4129C23.5589 39.1725 22.8034 37.529 22.669 35.7803C22.535 34.0314 23.0309 32.2916 24.0678 30.8767C25.1041 29.4618 26.613 28.4642 28.3213 28.0649C30.801 27.4452 33.4248 28.1726 35.232 29.9803C37.0397 31.7873 37.7672 34.4112 37.1474 36.891L37.1473 36.8915Z" fill="#D33838"/>
<path d="M27.0278 10.5448H48.588C49.0761 10.5573 49.5321 10.3026 49.7761 9.87997C50.0208 9.45736 50.0154 8.93534 49.7612 8.51808L45.8815 1.85147H45.8809C45.3779 0.993151 44.5541 0.370528 43.5911 0.120595C42.628 -0.129993 41.6054 0.013454 40.7477 0.518214L26.508 8.63837C26.1139 8.87527 25.9252 9.34491 26.0461 9.78836C26.1675 10.2318 26.5681 10.5407 27.0282 10.5449L27.0278 10.5448Z" fill="#16205B"/>
</svg>
