<svg width="60" height="60" viewBox="0 0 60 60" fill="none" xmlns="http://www.w3.org/2000/svg">
<path d="M59.999 15.0007V10.0004H39.9986V5.00022C39.9986 2.25168 37.748 0 34.9995 0H5.00023C2.25061 0.00104622 0 2.25155 0 5.00129V55.0008C0 57.7494 2.25061 60 5.00023 60H34.9995C37.748 60 39.9986 57.7494 39.9986 54.9998V45.0004H4.99996V5.00237H34.9992V10.0026C32.2496 10.0015 29.999 12.2521 29.999 15.0017V32.5004C29.999 35.25 32.2496 37.5006 34.9992 37.5006H59.9977V32.5004H34.9992V22.501H59.9977V18.7511H34.9992V15.0012L59.999 15.0007ZM20.0009 50.0006C21.3825 50.0006 22.5005 51.1212 22.5005 52.5002C22.5005 53.8792 21.3825 54.9998 20.0009 54.9998C18.6193 54.9998 17.5013 53.8792 17.5013 52.5002C17.5013 51.1212 18.6188 50.0006 20.0009 50.0006Z" fill="#D33838"/>
<path d="M37.4999 26.2501H49.9999V30H37.4999V26.2501Z" fill="#16205B"/>
<path d="M16.2517 22.6494L8.75195 15.1497L11.4033 12.4983L16.2517 17.3468L23.5998 9.99878L26.2511 12.6496L16.2517 22.6494Z" fill="#16205B"/>
<path d="M8.75195 33.75H21.252V37.4999H8.75195V33.75Z" fill="#16205B"/>
<path d="M8.75195 26.2501H26.2506V30H8.75195V26.2501Z" fill="#16205B"/>
</svg>
