<svg width="60" height="59" viewBox="0 0 60 59" fill="none" xmlns="http://www.w3.org/2000/svg">
<path d="M32.7675 30.4563H27.2155C25.2807 30.4563 19.373 35.3441 21.4434 42.1222C21.701 42.966 22.5944 43.4302 23.4235 43.1761C24.2617 42.9207 24.7332 42.0337 24.4774 41.196C23.8441 39.1225 24.3166 36.9297 25.6289 35.3022V44.7326H25.6538V56.6295C25.6538 57.5055 26.3638 58.216 27.2399 58.216C28.116 58.216 28.8265 57.506 28.8265 56.6295V44.7326H31.2058V56.6295C31.2058 57.5055 31.9159 58.216 32.7924 58.216C33.6685 58.216 34.3786 57.506 34.3786 56.6295C34.3786 45.997 34.3537 37.4386 34.3537 35.3018C35.6661 36.9293 36.1381 39.1221 35.5052 41.1955C35.2498 42.0337 35.7214 42.9198 36.5596 43.1761C37.4034 43.4319 38.2856 42.9551 38.5402 42.1222C40.5704 35.4691 34.831 30.4552 32.7676 30.4552L32.7675 30.4563Z" fill="#16205B"/>
<path d="M33.5608 26.0945C33.5608 28.0655 31.963 29.6634 29.992 29.6634C28.0206 29.6634 26.4227 28.0655 26.4227 26.0945C26.4227 24.1231 28.0206 22.5253 29.992 22.5253C31.963 22.5253 33.5608 24.1231 33.5608 26.0945" fill="#16205B"/>
<path d="M21.7845 32.9601C21.7845 32.7453 21.7457 28.629 21.7457 20.8379C25.5656 25.6067 23.518 29.8346 23.518 31.0842C24.031 30.5983 25.5426 29.4537 26.3254 29.2859C25.5752 28.432 25.1224 27.3193 25.1224 26.0905C25.1224 24.0594 26.3772 22.3129 28.1499 21.6012C26.0996 16.4506 21.1086 12.9331 19.1585 12.9331C7.72138 12.9331 9.60822 12.4902 6.58325 14.6408C1.08485 18.548 -1.28235 25.5209 0.683827 31.9638C1.07784 33.2676 2.47393 34.1179 3.9179 33.6846C5.27652 33.2706 6.05234 31.8218 5.63871 30.4506C4.60354 27.0739 5.36717 23.5033 7.51462 20.8384V36.221H7.55341V55.6261C7.55341 57.0623 8.71765 58.2135 10.1408 58.2135C11.5639 58.2135 12.7281 57.062 12.7281 55.6261V36.2199H16.609V55.625C16.609 57.0612 17.7733 58.2124 19.1964 58.2124C20.6195 58.2124 21.7837 57.0608 21.7837 55.625L21.7842 44.2794C19.42 43.2604 18.6585 37.285 21.7842 32.9595L21.7845 32.9601Z" fill="#D33838"/>
<path d="M20.45 5.82143C20.45 9.03676 17.8436 11.6433 14.6281 11.6433C11.4128 11.6433 8.80627 9.03687 8.80627 5.82143C8.80627 2.60654 11.4127 0 14.6281 0C17.8435 0 20.45 2.60643 20.45 5.82143Z" fill="#D33838"/>
<path d="M49.8841 12.9336C38.447 12.9336 40.3338 12.4907 37.3088 14.6413C34.7861 16.4266 32.9231 18.8718 31.8365 21.6016C33.6088 22.3261 34.851 24.0595 34.851 26.091C34.851 27.3202 34.3982 28.4324 33.6481 29.2864C34.44 29.4559 35.9891 30.6306 36.4685 31.0847C36.4685 29.8351 34.4143 25.5871 38.2408 20.8384V28.9242L37.4645 32.0419C41.5107 36.5474 40.6359 43.1198 38.2796 44.2545V55.6257C38.2796 57.0619 39.4438 58.2131 40.8669 58.2131C42.29 58.2131 43.4543 57.0616 43.4543 55.6257V43.7747H47.3352V55.6257C47.3352 57.0619 48.4994 58.2131 49.9225 58.2131C51.3456 58.2131 52.5099 57.0616 52.5099 55.6257V43.7747H56.1843L52.4712 28.9232V20.8374C54.6056 23.5023 55.3819 27.0729 54.3471 30.4496C53.933 31.8208 54.6962 33.2701 56.0679 33.6837C57.4029 34.1052 58.8675 33.3481 59.302 31.9629C62.6119 21.1189 53.2596 12.9327 49.8838 12.9327L49.8841 12.9336Z" fill="#D33838"/>
<path d="M51.1763 5.82143C51.1763 9.03676 48.5698 11.6433 45.3544 11.6433C42.1395 11.6433 39.533 9.03687 39.533 5.82143C39.533 2.60654 42.1394 0 45.3544 0C48.5697 0 51.1763 2.60643 51.1763 5.82143" fill="#D33838"/>
</svg>
