<svg width="60" height="39" viewBox="0 0 60 39" fill="none" xmlns="http://www.w3.org/2000/svg">
<path fill-rule="evenodd" clip-rule="evenodd" d="M1.79183 0.00242961C1.29844 0.0545127 0.841313 0.287488 0.510172 0.657189C0.179078 1.02689 -0.00275416 1.50633 3.15404e-05 2.00254V7.33549C3.15404e-05 7.86562 0.210685 8.37437 0.585969 8.74966C0.960777 9.12446 1.46953 9.33513 2.00013 9.33513C3.49655 9.33513 4.66655 10.5051 4.66655 12.0015C4.66655 13.498 3.49654 14.668 2.00013 14.668C1.46954 14.6684 0.960789 14.8791 0.585969 15.2539C0.210697 15.6292 3.15404e-05 16.1375 3.15404e-05 16.6681V22.001C3.15404e-05 22.5311 0.210685 23.0399 0.585969 23.4152C0.960777 23.79 1.46953 24.0007 2.00013 24.0007C3.49655 24.0007 4.66655 25.1707 4.66655 26.6671C4.66655 28.1635 3.49654 29.3335 2.00013 29.3335C1.46954 29.334 0.960789 29.5446 0.585969 29.9194C0.210697 30.2947 3.15404e-05 30.803 3.15404e-05 31.3336V36.6665C3.15404e-05 37.1967 0.210685 37.7054 0.585969 38.0807C0.960777 38.4555 1.46953 38.6662 2.00013 38.6662H57.9999C58.5305 38.6662 59.0392 38.4555 59.4141 38.0807C59.7893 37.7054 60 37.1967 60 36.6665V31.3336C60 30.803 59.7893 30.2947 59.4141 29.9194C59.0392 29.5446 58.5305 29.334 57.9999 29.3335C56.5035 29.3335 55.3335 28.1635 55.3335 26.6671C55.3335 25.1706 56.5035 24.0007 57.9999 24.0007C58.5305 24.0007 59.0392 23.79 59.4141 23.4152C59.7893 23.0399 60 22.5312 60 22.001V16.6681C60 16.1375 59.7893 15.6292 59.4141 15.2539C59.0392 14.8791 58.5305 14.6684 57.9999 14.668C56.5035 14.668 55.3335 13.498 55.3335 12.0015C55.3335 10.5051 56.5035 9.33513 57.9999 9.33513C58.5305 9.33513 59.0392 9.12447 59.4141 8.74966C59.7893 8.37438 60 7.86564 60 7.33549V2.00254C60 1.47195 59.7893 0.963663 59.4141 0.588379C59.0392 0.213571 58.5305 0.0029057 57.9999 0.00244142H2.00013C1.93084 -0.000813806 1.86112 -0.000825614 1.79183 0.00242961ZM28.0002 4.00218H4.00028V5.73098C6.67693 6.59824 8.66681 9.05084 8.66681 12.0014C8.66681 14.9515 6.67646 17.3832 4.00028 18.2509V20.3965C6.67693 21.2642 8.66681 23.7164 8.66681 26.667C8.66681 29.6171 6.67646 32.0487 4.00028 32.9165V34.6663H28.0002V4.00218ZM56.0001 4.00218H32.0002V34.6665H56.0001V32.9166C53.3239 32.0488 51.3335 29.6172 51.3335 26.6671C51.3335 23.7165 53.3234 21.2639 56.0001 20.3966V18.251C53.3239 17.3833 51.3335 14.9517 51.3335 12.0015C51.3335 9.05096 53.3234 6.59838 56.0001 5.7311V4.00218Z" fill="#D33838"/>
<path d="M12.4578 26.0008C11.7435 26.038 11.1031 26.4537 10.7781 27.0908C10.4531 27.7283 10.4926 28.4905 10.8823 29.0909C11.2715 29.6908 11.9519 30.0377 12.6661 30.0005H23.333C23.8682 30.0079 24.3839 29.8005 24.7652 29.4248C25.1465 29.0486 25.3609 28.5356 25.3609 28.0004C25.3609 27.4651 25.1465 26.9522 24.7652 26.5765C24.3839 26.2007 23.8682 25.9933 23.333 26.0008H12.6661C12.5968 25.997 12.5275 25.997 12.4578 26.0008Z" fill="#16205B"/>
<path fill-rule="evenodd" clip-rule="evenodd" d="M36.458 8.66869C35.9646 8.72031 35.508 8.95375 35.1768 9.32345C34.8457 9.69269 34.6634 10.1721 34.6662 10.6683V28.0004C34.6662 28.531 34.8769 29.0397 35.2522 29.4146C35.6274 29.7898 36.1357 30.0005 36.6663 30.0005H47.3332C47.8633 30.0005 48.3721 29.7898 48.7473 29.4146C49.1222 29.0397 49.3328 28.531 49.3328 28.0004V10.6683C49.3328 10.1382 49.1222 9.62945 48.7473 9.25464C48.3721 8.87937 47.8633 8.6687 47.3332 8.6687H36.6663C36.597 8.66498 36.5273 8.66497 36.458 8.66869ZM38.6669 12.668H45.3336V26.0001H38.6669V12.668Z" fill="#16205B"/>
<path d="M12.1348 8.84912C11.4205 8.88632 10.7802 9.30206 10.4552 9.93914C10.1301 10.5767 10.1696 11.3389 10.5593 11.9392C10.9486 12.5391 11.6289 12.886 12.3431 12.8488H23.01C23.5452 12.8563 24.0614 12.6489 24.4427 12.2731C24.8236 11.8974 25.0384 11.3845 25.0384 10.8487C25.0384 10.3135 24.8236 9.80057 24.4427 9.42482C24.0614 9.04908 23.5452 8.84168 23.01 8.84912H12.3431C12.2738 8.8454 12.2046 8.8454 12.1348 8.84912Z" fill="#16205B"/>
<path d="M12.403 17.2501C11.8719 17.2771 11.3734 17.5138 11.0171 17.9086C10.6609 18.3034 10.4763 18.8233 10.5037 19.3544C10.5317 19.8855 10.7693 20.3835 11.1646 20.7393C11.5598 21.0951 12.0807 21.2787 12.6112 21.2499H23.2781C23.8133 21.2578 24.3295 21.0504 24.7108 20.6747C25.0921 20.2985 25.307 19.7855 25.307 19.2503C25.307 18.715 25.0921 18.2016 24.7108 17.8259C24.3295 17.4501 23.8133 17.2427 23.2781 17.2502H12.6112C12.5419 17.2469 12.4726 17.2469 12.4029 17.2502L12.403 17.2501Z" fill="#16205B"/>
</svg>
