<svg width="150" height="100" viewBox="0 0 150 100" fill="none" xmlns="http://www.w3.org/2000/svg">
<g opacity="0.2">
<path d="M129.998 10.0004V5.00019C129.998 2.23957 127.76 0 124.997 0L5.00019 0.00132214C2.2369 0.00132214 0 2.23971 0 5.00151V75.0001C0 77.7607 2.23707 80.0003 5.00019 80.0003H10.0004V24.9992C10.0004 16.7291 16.7288 9.99967 24.9999 9.99967L129.998 10.0004Z" fill="#16205B"/>
<path d="M20.0023 95.0002C20.0023 97.7608 22.2394 100 25.0025 100H145C147.763 100 150 97.762 150 95.0002L149.997 55H20.0017L20.0023 95.0002ZM106.251 80.002H126.25C129.013 80.002 131.25 82.2404 131.25 85.0022C131.25 87.7628 129.013 90.0024 126.25 90.0024H106.251C103.488 90.0024 101.251 87.764 101.251 85.0022C101.252 82.2402 103.488 80.002 106.251 80.002V80.002ZM63.7527 80.002H68.7529C71.5162 80.002 73.7531 82.2404 73.7531 85.0022C73.7531 87.7628 71.516 90.0024 68.7529 90.0024H63.7527C60.9894 90.0024 58.7525 87.764 58.7525 85.0022C58.7525 82.2404 60.9896 80.002 63.7527 80.002ZM43.754 80.002H48.7542C51.5175 80.002 53.7544 82.2404 53.7544 85.0022C53.7544 87.7628 51.5173 90.0024 48.7542 90.0024H43.754C40.9907 90.0024 38.7538 87.764 38.7538 85.0022C38.7538 82.2404 40.9909 80.002 43.754 80.002Z" fill="#D33838"/>
<path d="M144.998 19.9985H25.0012C22.2379 19.9985 20.001 22.2369 20.001 24.9987V44.9975H150V24.9987C150.001 22.2381 147.764 19.9985 145 19.9985H144.998Z" fill="#D33838"/>
</g>
</svg>
