<svg width="123" height="151" viewBox="0 0 123 151" fill="none" xmlns="http://www.w3.org/2000/svg">
<g opacity="0.2">
<path d="M39.5416 145.311C40.3399 146.114 41.21 146.843 42.14 147.489V108.862L3.51324 108.861C4.15873 109.792 4.88654 110.662 5.69077 111.459L39.5416 145.311Z" fill="#F29494"/>
<path d="M103.593 151C108.717 151.005 113.632 148.971 117.254 145.348C120.877 141.724 122.911 136.81 122.907 131.687V19.3131C122.911 14.1902 120.877 9.2755 117.254 5.65181C113.632 2.02932 108.717 -0.0048074 103.593 8.53207e-06H19.3143C14.1905 -0.00469453 9.27549 2.02938 5.65301 5.65181C2.03052 9.2755 -0.00360715 14.1902 4.80202e-06 19.3131V98.3245H47.4069C48.8013 98.3339 50.1358 98.8924 51.1223 99.8777C52.1076 100.864 52.6661 102.199 52.6743 103.592V150.999L103.593 151ZM94.8137 75.5012V78.1702C97.8908 79.2625 100.555 81.2789 102.441 83.9457C104.327 86.6112 105.343 89.794 105.349 93.059C105.349 94.9413 104.345 96.6802 102.715 97.6208C101.085 98.5614 99.0771 98.5614 97.4475 97.6208C95.8179 96.6802 94.8138 94.9413 94.8138 93.059C94.8138 91.6621 94.2588 90.323 93.2712 89.3341C92.2835 88.3465 90.9443 87.7915 89.5463 87.7915C88.1495 87.7915 86.8104 88.3465 85.8215 89.3341C84.8339 90.323 84.2789 91.6621 84.2789 93.059C84.2789 94.4569 84.8339 95.7961 85.8215 96.7838C86.8104 97.7714 88.1495 98.3264 89.5463 98.3264C94.5585 98.3217 99.2745 100.697 102.256 104.725C105.239 108.753 106.132 113.957 104.664 118.75C103.196 123.541 99.5406 127.351 94.8138 129.019V131.688C94.8138 133.569 93.8097 135.308 92.1801 136.248C90.5504 137.19 88.5422 137.19 86.9126 136.248C85.283 135.308 84.2789 133.569 84.2789 131.688V129.019C81.2018 127.926 78.5377 125.909 76.6517 123.243C74.7657 120.578 73.7499 117.394 73.744 114.129C73.744 112.247 74.7481 110.509 76.3777 109.568C78.0073 108.626 80.0155 108.626 81.6451 109.568C83.2748 110.509 84.2788 112.248 84.2788 114.129C84.2788 115.527 84.8338 116.866 85.8215 117.853C86.8103 118.841 88.1495 119.396 89.5463 119.396C90.9443 119.396 92.2835 118.841 93.2711 117.853C94.2587 116.866 94.8137 115.527 94.8137 114.129C94.8137 112.732 94.2587 111.393 93.2711 110.404C92.2835 109.416 90.9443 108.861 89.5463 108.861C84.5353 108.866 79.8181 106.492 76.8361 102.464C73.8542 98.4357 72.9608 93.2317 74.4293 88.4393C75.8979 83.648 79.5523 79.8362 84.2788 78.1702V75.5012C84.2788 73.6188 85.2829 71.8799 86.9125 70.9393C88.5422 69.9987 90.5504 69.9987 92.18 70.9393C93.8096 71.8799 94.8137 73.6189 94.8137 75.5012ZM33.3624 28.0944H54.4321C56.3133 28.0944 58.0522 29.0984 58.9928 30.7281C59.9346 32.3577 59.9346 34.3659 58.9928 35.9955C58.0522 37.6251 56.3132 38.6292 54.4321 38.6292H33.3624C31.48 38.6292 29.7411 37.6251 28.8005 35.9955C27.8599 34.3659 27.8599 32.3577 28.8005 30.7281C29.7411 29.0985 31.48 28.0944 33.3624 28.0944ZM33.3624 59.6989C31.48 59.6989 29.7411 58.6948 28.8005 57.0652C27.8599 55.4356 27.8599 53.4274 28.8005 51.7978C29.7411 50.1682 31.48 49.1641 33.3624 49.1641H82.524C84.4064 49.1641 86.1453 50.1682 87.0859 51.7978C88.0265 53.4274 88.0265 55.4356 87.0859 57.0652C86.1453 58.6948 84.4064 59.6989 82.524 59.6989H33.3624Z" fill="#D33838"/>
</g>
</svg>
