<svg width="150" height="150" viewBox="0 0 150 150" fill="none" xmlns="http://www.w3.org/2000/svg">
<g opacity="0.2">
<path d="M149.998 37.5017V25.0011H99.9966V12.5006C99.9966 5.6292 94.37 0 87.4987 0H12.5006C5.62653 0.00261555 0 5.62887 0 12.5032V137.502C0 144.373 5.62653 150 12.5006 150H87.4987C94.37 150 99.9966 144.373 99.9966 137.499V112.501H12.4999V12.5059H87.498V25.0065C80.6239 25.0039 74.9974 30.6303 74.9974 37.5043V81.2509C74.9974 88.125 80.6239 93.7515 87.498 93.7515H149.994V81.2509H87.498V56.2525H149.994V46.8778H87.498V37.503L149.998 37.5017ZM50.0023 125.002C53.4562 125.002 56.2512 127.803 56.2512 131.251C56.2512 134.698 53.4563 137.499 50.0023 137.499C46.5484 137.499 43.7533 134.698 43.7533 131.251C43.7533 127.803 46.547 125.002 50.0023 125.002Z" fill="#D33838"/>
<path d="M93.7494 65.6251H125V74.9999H93.7494V65.6251Z" fill="#16205B"/>
<path d="M40.6294 56.6235L21.8799 37.874L28.5082 31.2458L40.6294 43.3669L58.9996 24.9968L65.6279 31.6238L40.6294 56.6235Z" fill="#16205B"/>
<path d="M21.8799 84.3751H53.13V93.7499H21.8799V84.3751Z" fill="#16205B"/>
<path d="M21.8799 65.6251H65.6265V74.9999H21.8799V65.6251Z" fill="#16205B"/>
</g>
</svg>
