<svg width="24" height="24" viewBox="0 0 24 24" fill="none" xmlns="http://www.w3.org/2000/svg">
<path fill-rule="evenodd" clip-rule="evenodd" d="M9.85531 12.9999C9.42489 14.4456 8.08561 15.5 6.50025 15.5C4.91471 15.5 3.57543 14.4456 3.14519 12.9999H1.00084C0.448199 12.9999 0.000214494 12.5561 0.000214494 12C0.000214494 11.4477 0.447684 11 1.00084 11H3.14519C3.57543 9.55428 4.91471 8.49991 6.50025 8.49991C8.08561 8.49991 9.42489 9.55428 9.85531 11H22.9995C23.5522 11 24.0002 11.4438 24.0002 12C24.0002 12.5523 23.5527 12.9999 22.9995 12.9999H9.85531ZM14.1449 19.5C14.5753 18.0543 15.9146 17.0001 17.4999 17.0001C19.0855 17.0001 20.4247 18.0543 20.855 19.5H22.9993C23.552 19.5 24 19.9438 24 20.5C24 21.0523 23.5525 21.5001 22.9993 21.5001H20.855C20.4247 22.9458 19.0855 24 17.4999 24C15.9146 24 14.5753 22.9458 14.1449 21.5001H1.00062C0.447984 21.5001 0 21.0561 0 20.5C0 19.9477 0.44747 19.5 1.00062 19.5H14.1449ZM14.1449 2.49993C14.5753 1.0542 15.9146 0 17.4999 0C19.0855 0 20.4247 1.0542 20.855 2.49993H22.9993C23.552 2.49993 24 2.94389 24 3.50004C24 4.05234 23.5525 4.49998 22.9993 4.49998H20.855C20.4247 5.94572 19.0855 6.99992 17.4999 6.99992C15.9146 6.99992 14.5753 5.94572 14.1449 4.49998H1.00062C0.447984 4.49998 0 4.0562 0 3.50004C0 2.94775 0.44747 2.49993 1.00062 2.49993H14.1449ZM17.4999 5.00004C18.3284 5.00004 18.9999 4.32838 18.9999 3.50004C18.9999 2.67153 18.3284 2.00005 17.4999 2.00005C16.6716 2.00005 15.9999 2.67153 15.9999 3.50004C15.9999 4.32838 16.6716 5.00004 17.4999 5.00004ZM17.4999 21.9997C18.3284 21.9997 18.9999 21.3282 18.9999 20.4997C18.9999 19.6714 18.3284 18.9997 17.4999 18.9997C16.6716 18.9997 15.9999 19.6714 15.9999 20.4997C15.9999 21.3282 16.6716 21.9997 17.4999 21.9997ZM6.50025 10.4999C5.67174 10.4999 5.00025 11.1715 5.00025 11.9999C5.00025 12.8282 5.67174 13.4999 6.50025 13.4999C7.32859 13.4999 8.00024 12.8282 8.00024 11.9999C8.00024 11.1715 7.32859 10.4999 6.50025 10.4999Z" fill="#16205B"/>
</svg>
