<svg width="17" height="20" viewBox="0 0 17 20" fill="none" xmlns="http://www.w3.org/2000/svg">
<path d="M5.2373 19.2465C5.34304 19.3528 5.45828 19.4494 5.58146 19.5349V14.4187L0.465332 14.4186C0.550827 14.5419 0.647225 14.6572 0.753745 14.7627L5.2373 19.2465Z" fill="#16205B"/>
<path d="M13.7209 20C14.3996 20.0006 15.0506 19.7312 15.5304 19.2514C16.0102 18.7715 16.2796 18.1205 16.2791 17.442V2.55803C16.2796 1.87949 16.0102 1.22854 15.5304 0.748584C15.0506 0.268784 14.3996 -0.000636742 13.7209 1.13008e-06H2.55819C1.87953 -0.000621792 1.22854 0.268792 0.748743 0.748584C0.268944 1.22854 -0.000477768 1.87949 6.36028e-07 2.55803V13.0231H6.27905C6.46375 13.0244 6.6405 13.0983 6.77117 13.2288C6.90167 13.3595 6.97565 13.5362 6.97673 13.7208V19.9998L13.7209 20ZM12.5581 10.0002V10.3537C12.9657 10.4983 13.3185 10.7654 13.5683 11.1186C13.8181 11.4717 13.9527 11.8933 13.9535 12.3257C13.9535 12.575 13.8205 12.8053 13.6046 12.9299C13.3888 13.0545 13.1228 13.0545 12.907 12.9299C12.6911 12.8053 12.5581 12.575 12.5581 12.3257C12.5581 12.1407 12.4846 11.9633 12.3538 11.8323C12.223 11.7015 12.0456 11.628 11.8604 11.628C11.6754 11.628 11.4981 11.7015 11.3671 11.8323C11.2363 11.9633 11.1628 12.1407 11.1628 12.3257C11.1628 12.5109 11.2363 12.6882 11.3671 12.819C11.4981 12.9499 11.6754 13.0234 11.8604 13.0234C12.5243 13.0227 13.1489 13.3373 13.5439 13.8709C13.939 14.4044 14.0572 15.0937 13.8628 15.7284C13.6683 16.363 13.1842 16.8677 12.5581 17.0886V17.4421C12.5581 17.6912 12.4251 17.9215 12.2093 18.0461C11.9934 18.1709 11.7274 18.1709 11.5116 18.0461C11.2958 17.9215 11.1628 17.6912 11.1628 17.4421V17.0886C10.7552 16.9439 10.4023 16.6767 10.1525 16.3236C9.90275 15.9705 9.7682 15.5488 9.76742 15.1164C9.76742 14.8672 9.90041 14.6369 10.1163 14.5123C10.3321 14.3876 10.5981 14.3876 10.8139 14.5123C11.0298 14.6369 11.1628 14.8672 11.1628 15.1164C11.1628 15.3015 11.2363 15.4789 11.3671 15.6097C11.4981 15.7405 11.6754 15.8141 11.8604 15.8141C12.0456 15.8141 12.223 15.7405 12.3538 15.6097C12.4846 15.4789 12.5581 15.3015 12.5581 15.1164C12.5581 14.9314 12.4846 14.754 12.3538 14.623C12.223 14.4922 12.0456 14.4187 11.8604 14.4187C11.1967 14.4193 10.5719 14.1049 10.177 13.5714C9.78201 13.0378 9.66368 12.3486 9.85819 11.7138C10.0527 11.0792 10.5367 10.5743 11.1628 10.3537V10.0002C11.1628 9.75084 11.2958 9.52052 11.5116 9.39593C11.7274 9.27135 11.9934 9.27135 12.2093 9.39593C12.4251 9.52052 12.5581 9.75084 12.5581 10.0002H12.5581ZM4.41886 3.72111H7.20955C7.45872 3.72111 7.68903 3.8541 7.81361 4.06994C7.93835 4.28579 7.93835 4.55178 7.81361 4.76762C7.68903 4.98346 7.45871 5.11645 7.20955 5.11645H4.41886C4.16953 5.11645 3.93922 4.98346 3.81464 4.76762C3.69005 4.55177 3.69005 4.28578 3.81464 4.06994C3.93922 3.8541 4.16954 3.72111 4.41886 3.72111ZM4.41886 7.90714C4.16953 7.90714 3.93922 7.77415 3.81464 7.55831C3.69005 7.34246 3.69005 7.07647 3.81464 6.86063C3.93922 6.64479 4.16954 6.5118 4.41886 6.5118H10.9303C11.1797 6.5118 11.41 6.64479 11.5346 6.86063C11.6591 7.07648 11.6591 7.34247 11.5346 7.55831C11.41 7.77415 11.1797 7.90714 10.9303 7.90714H4.41886Z" fill="#16205B"/>
</svg>
