<svg width="19" height="19" viewBox="0 0 19 19" fill="none" xmlns="http://www.w3.org/2000/svg">
<path d="M19 8.50426V14.4943C19 15.6877 18.5259 16.8323 17.682 17.6762C16.8381 18.5202 15.6935 18.9943 14.5 18.9943H12V14.4943C12 13.8312 11.7366 13.1953 11.2678 12.7265C10.7989 12.2577 10.163 11.9943 9.5 11.9943C8.83696 11.9943 8.20108 12.2577 7.73224 12.7265C7.2634 13.1953 7 13.8312 7 14.4943V18.9943H4.5C3.30653 18.9943 2.16194 18.5202 1.31802 17.6762C0.47411 16.8323 3.81046e-06 15.6877 3.81046e-06 14.4943V8.50426C-0.000872774 7.83235 0.149503 7.16885 0.439982 6.56296C0.730461 5.95708 1.15359 5.42434 1.678 5.00426L6.678 0.986264C7.4798 0.347699 8.4745 0 9.4995 0C10.5245 0 11.5192 0.347699 12.321 0.986264L17.321 5.00426C17.8457 5.42415 18.2691 5.95682 18.5598 6.56273C18.8504 7.16864 19.0009 7.83224 19 8.50426V8.50426Z" fill="#16205B"/>
</svg>
