<svg width="90" height="88" viewBox="0 0 90 88" fill="none" xmlns="http://www.w3.org/2000/svg">
<g filter="url(#filter0_d_25_807)">
<rect x="16" y="12" width="58" height="56" rx="8" fill="#D33838"/>
</g>
<path d="M26.6667 30C27.1086 30 27.5327 29.8244 27.8452 29.5119C28.1577 29.1994 28.3333 28.7753 28.3333 28.3333V25C28.3333 24.558 28.5089 24.1339 28.8214 23.8214C29.1339 23.5089 29.558 23.3333 30 23.3333H33.3333C33.9289 23.3333 34.4791 23.0156 34.7767 22.5C35.0744 21.9844 35.0744 21.349 34.7767 20.8333C34.4791 20.3177 33.9289 20 33.3333 20H30C28.6737 20 27.4022 20.5268 26.4643 21.4643C25.5268 22.4022 25 23.6737 25 25V28.3333C25 28.7753 25.1756 29.1994 25.4881 29.5119C25.8006 29.8244 26.2247 30 26.6667 30Z" fill="white"/>
<path d="M33.3333 56.6666H30C29.558 56.6666 29.1339 56.491 28.8214 56.1785C28.5089 55.866 28.3333 55.4419 28.3333 55V51.6666C28.3333 51.071 28.0156 50.5208 27.5 50.2232C26.9844 49.9256 26.349 49.9256 25.8333 50.2232C25.3177 50.5208 25 51.0711 25 51.6666V55C25 56.3263 25.5268 57.5978 26.4643 58.5357C27.4022 59.4732 28.6737 60 30 60H33.3333C33.9289 60 34.4791 59.6823 34.7767 59.1666C35.0744 58.651 35.0744 58.0156 34.7767 57.5C34.4791 56.9843 33.9289 56.6666 33.3333 56.6666Z" fill="white"/>
<path d="M63.3333 50C62.8913 50 62.4672 50.1756 62.1547 50.4881C61.8422 50.8006 61.6666 51.2247 61.6666 51.6667V55C61.6666 55.442 61.491 55.8661 61.1785 56.1786C60.866 56.4911 60.4419 56.6667 60 56.6667H56.6666C56.071 56.6667 55.5208 56.9844 55.2232 57.5C54.9256 58.0156 54.9256 58.651 55.2232 59.1667C55.5208 59.6823 56.0711 60 56.6666 60H60C61.3263 60 62.5978 59.4732 63.5357 58.5357C64.4732 57.5978 65 56.3263 65 55V51.6667C65 51.2247 64.8244 50.8006 64.5119 50.4881C64.1994 50.1756 63.7753 50 63.3333 50Z" fill="white"/>
<path d="M60 20H56.6666C56.071 20 55.5208 20.3177 55.2232 20.8333C54.9256 21.349 54.9256 21.9844 55.2232 22.5C55.5208 23.0156 56.0711 23.3333 56.6666 23.3333H60C60.4419 23.3333 60.866 23.5089 61.1785 23.8214C61.491 24.1339 61.6666 24.558 61.6666 25V28.3333C61.6666 28.9289 61.9843 29.4791 62.5 29.7767C63.0156 30.0744 63.651 30.0744 64.1666 29.7767C64.6822 29.4791 65 28.9289 65 28.3333V25C65 23.6737 64.4732 22.4022 63.5357 21.4643C62.5978 20.5268 61.3263 20 60 20Z" fill="white"/>
<path d="M32 54H40C40.2652 54 40.5197 53.8946 40.7071 53.7071C40.8946 53.5197 41 53.2652 41 53V45C41 44.7348 40.8946 44.4804 40.7071 44.2929C40.5197 44.1054 40.2652 44 40 44H32C31.7348 44 31.4804 44.1054 31.2929 44.2929C31.1054 44.4804 31 44.7348 31 45V53C31 53.2652 31.1054 53.5197 31.2929 53.7071C31.4804 53.8946 31.7348 54 32 54ZM33 46H39V52H33V46Z" fill="white"/>
<path d="M58.0005 44H50.0005C49.7353 44 49.4808 44.1054 49.2933 44.2929C49.1058 44.4804 49.0005 44.7348 49.0005 45V53C49.0005 53.2652 49.1058 53.5197 49.2933 53.7071C49.4808 53.8946 49.7353 54 50.0005 54H58.0005C58.2657 54 58.5201 53.8946 58.7076 53.7071C58.8951 53.5197 59.0005 53.2652 59.0005 53V45C59.0005 44.7348 58.8951 44.4804 58.7076 44.2929C58.5201 44.1054 58.2657 44 58.0005 44ZM57.0005 52H51.0005V46H57.0005V52Z" fill="white"/>
<path d="M58.0023 26H50.0017C49.7365 26 49.4823 26.1054 49.2946 26.2929C49.1071 26.4804 49.0017 26.7348 49.0017 27V35C49.0017 35.2652 49.1071 35.5197 49.2946 35.7071C49.4823 35.8946 49.7365 36 50.0017 36H58.0023C58.2677 36 58.5219 35.8946 58.7094 35.7071C58.8969 35.5197 59.0023 35.2652 59.0023 35V27C59.0023 26.7348 58.8969 26.4804 58.7094 26.2929C58.5219 26.1054 58.2677 26 58.0023 26ZM57.0023 34H51.0017V28H57.0023V34Z" fill="white"/>
<path d="M32 36H40C40.2652 36 40.5197 35.8946 40.7071 35.7071C40.8946 35.5197 41 35.2652 41 35V27C41 26.7348 40.8946 26.4804 40.7071 26.2929C40.5197 26.1054 40.2652 26 40 26H32C31.7348 26 31.4804 26.1054 31.2929 26.2929C31.1054 26.4804 31 26.7348 31 27V35C31 35.2652 31.1054 35.5197 31.2929 35.7071C31.4804 35.8946 31.7348 36 32 36ZM33 28H39V34H33V28Z" fill="white"/>
<path d="M37.0005 48.9999C37.0005 49.5521 36.5527 49.9999 36.0005 49.9999C35.4483 49.9999 35.0005 49.5521 35.0005 48.9999C35.0005 48.4476 35.4483 47.9999 36.0005 47.9999C36.5527 47.9999 37.0005 48.4476 37.0005 48.9999Z" fill="white"/>
<path d="M55.0012 48.9999C55.0012 49.5521 54.5534 49.9999 54.0012 49.9999C53.449 49.9999 53.0012 49.5521 53.0012 48.9999C53.0012 48.4476 53.449 47.9999 54.0012 47.9999C54.5534 47.9999 55.0012 48.4476 55.0012 48.9999Z" fill="white"/>
<path d="M55.0012 31C55.0012 31.5522 54.5534 32 54.0012 32C53.449 32 53.0012 31.5522 53.0012 31C53.0012 30.4478 53.449 30 54.0012 30C54.5534 30 55.0012 30.4478 55.0012 31Z" fill="white"/>
<path d="M37.0005 31C37.0005 31.5522 36.5527 32 36.0005 32C35.4483 32 35.0005 31.5522 35.0005 31C35.0005 30.4478 35.4483 30 36.0005 30C36.5527 30 37.0005 30.4478 37.0005 31Z" fill="white"/>
<path d="M32 39.9999H34V41.9999C34 42.2651 34.1054 42.5195 34.2929 42.707C34.4803 42.8945 34.7348 42.9999 35 42.9999H37C37.3574 42.9999 37.6875 42.8093 37.8661 42.4999C38.0446 42.1905 38.0446 41.8093 37.8661 41.4999C37.6875 41.1905 37.3574 40.9999 37 40.9999H36V38.9999C36 38.7347 35.8946 38.4802 35.7071 38.2927C35.5196 38.1052 35.2652 37.9999 35 37.9999H32C31.6426 37.9999 31.3125 38.1905 31.1339 38.4999C30.9554 38.8093 30.9554 39.1905 31.1339 39.4999C31.3125 39.8093 31.6426 39.9999 32 39.9999Z" fill="white"/>
<path d="M45.0005 48.0001H44.0005C43.7353 48.0001 43.4808 48.1054 43.2933 48.2929C43.1058 48.4804 43.0005 48.7349 43.0005 49.0001V53C43.0005 53.3574 43.1911 53.6875 43.5005 53.8661C43.8099 54.0446 44.1911 54.0446 44.5005 53.8661C44.8099 53.6875 45.0005 53.3574 45.0005 53V50.0001H46.0005C46.2657 50.0001 46.5201 49.8947 46.7076 49.7072C46.8951 49.5197 47.0005 49.2652 47.0005 49.0001V44.0001C47.0005 43.6427 46.8098 43.3126 46.5005 43.134C46.1911 42.9555 45.8098 42.9555 45.5005 43.134C45.1911 43.3126 45.0005 43.6427 45.0005 44.0001V48.0001Z" fill="white"/>
<path d="M43 35V38H39C38.6426 38 38.3125 38.1906 38.1339 38.5C37.9554 38.8094 37.9554 39.1906 38.1339 39.5C38.3125 39.8094 38.6426 40 39 40H44C44.2652 40 44.5196 39.8946 44.7071 39.7071C44.8946 39.5196 45 39.2652 45 39V36H46C46.2652 36 46.5196 35.8946 46.7071 35.7071C46.8946 35.5196 47 35.2652 47 35L46.9991 31C46.9991 30.6426 46.8085 30.3125 46.4991 30.1339C46.1895 29.9554 45.8085 29.9554 45.4991 30.1339C45.1895 30.3125 44.9991 30.6426 44.9991 31V34H44C43.7348 34 43.4804 34.1053 43.2929 34.2928C43.1054 34.4803 43 34.7348 43 35H43Z" fill="white"/>
<path d="M57.9985 39.9999H56.9985V38.9999C56.9985 38.7347 56.8931 38.4802 56.7056 38.2927C56.5181 38.1052 56.2637 37.9999 55.9985 37.9999H51.9985C51.6412 37.9999 51.311 38.1905 51.1325 38.4999C50.9539 38.8093 50.9539 39.1905 51.1325 39.4999C51.311 39.8092 51.6412 39.9999 51.9985 39.9999H54.9985V40.9999C54.9985 41.265 55.1039 41.5195 55.2914 41.707C55.4789 41.8945 55.7333 41.9999 55.9985 41.9999H57.9985C58.3558 41.9999 58.686 41.8092 58.8645 41.4999C59.0431 41.1905 59.0431 40.8092 58.8645 40.4999C58.686 40.1905 58.3558 39.9999 57.9985 39.9999Z" fill="white"/>
<path d="M43.0005 30C43.2657 30 43.5201 29.8946 43.7076 29.7071C43.8951 29.5196 44.0005 29.2652 44.0005 29V28H46.0005C46.3578 28 46.688 27.8094 46.8665 27.5C47.0451 27.1906 47.0451 26.8094 46.8665 26.5C46.688 26.1906 46.3578 26 46.0005 26H43.0005C42.7353 26 42.4808 26.1054 42.2933 26.2929C42.1058 26.4804 42.0005 26.7348 42.0005 27V29C42.0005 29.2652 42.1058 29.5196 42.2933 29.7071C42.4808 29.8946 42.7353 30 43.0005 30Z" fill="white"/>
<path d="M50.0013 41.9999V38.9999C50.0013 38.7347 49.8959 38.4802 49.7085 38.2927C49.521 38.1052 49.2665 37.9999 49.0013 37.9999H47.0013C46.644 37.9999 46.3138 38.1905 46.1353 38.4999C45.9567 38.8093 45.9567 39.1905 46.1353 39.4999C46.3138 39.8092 46.644 39.9999 47.0013 39.9999H48.0013V41.9999C48.0013 42.3572 48.1919 42.6874 48.5013 42.8659C48.8107 43.0445 49.1919 43.0445 49.5013 42.8659C49.8107 42.6874 50.0013 42.3572 50.0013 41.9999Z" fill="white"/>
<path d="M40.9995 43H41.9995V44C41.9995 44.3573 42.1901 44.6875 42.4995 44.866C42.8089 45.0446 43.1901 45.0446 43.4995 44.866C43.8088 44.6875 43.9995 44.3573 43.9995 44V42C43.9995 41.7348 43.8941 41.4804 43.7066 41.2929C43.5191 41.1054 43.2647 41 42.9995 41H40.9995C40.6421 41 40.312 41.1906 40.1334 41.5C39.9549 41.8094 39.9549 42.1906 40.1334 42.5C40.312 42.8094 40.6421 43 40.9995 43Z" fill="white"/>
<defs>
<filter id="filter0_d_25_807" x="0" y="0" width="90" height="88" filterUnits="userSpaceOnUse" color-interpolation-filters="sRGB">
<feFlood flood-opacity="0" result="BackgroundImageFix"/>
<feColorMatrix in="SourceAlpha" type="matrix" values="0 0 0 0 0 0 0 0 0 0 0 0 0 0 0 0 0 0 127 0" result="hardAlpha"/>
<feOffset dy="4"/>
<feGaussianBlur stdDeviation="8"/>
<feComposite in2="hardAlpha" operator="out"/>
<feColorMatrix type="matrix" values="0 0 0 0 0.895833 0 0 0 0 0.158264 0 0 0 0 0.158264 0 0 0 0.27 0"/>
<feBlend mode="normal" in2="BackgroundImageFix" result="effect1_dropShadow_25_807"/>
<feBlend mode="normal" in="SourceGraphic" in2="effect1_dropShadow_25_807" result="shape"/>
</filter>
</defs>
</svg>
