<svg width="21" height="21" viewBox="0 0 21 21" fill="none" xmlns="http://www.w3.org/2000/svg">
<path d="M19.7005 18.2909L15.1736 13.7639C16.5161 12.0618 17.1575 9.91095 16.9666 7.75148C16.7757 5.59201 15.7669 3.58709 14.1466 2.14687C12.5263 0.706643 10.4169 -0.0600343 8.25002 0.00367483C6.08311 0.0673839 4.02243 0.956664 2.48954 2.4896C0.956642 4.02253 0.0673824 6.08325 0.00367475 8.25021C-0.0600329 10.4172 0.706626 12.5266 2.14682 14.1469C3.58701 15.7673 5.59188 16.7761 7.7513 16.967C9.91072 17.1579 12.0615 16.5165 13.7636 15.1739L18.2905 19.7009C18.3801 19.8056 18.4905 19.8906 18.6145 19.9506C18.7386 20.0107 18.8737 20.0444 19.0114 20.0497C19.1491 20.055 19.2865 20.0318 19.4148 19.9816C19.5431 19.9313 19.6597 19.855 19.7571 19.7576C19.8546 19.6601 19.9308 19.5436 19.9811 19.4152C20.0314 19.2869 20.0546 19.1496 20.0493 19.0119C20.0439 18.8741 20.0102 18.739 19.9502 18.615C19.8902 18.4909 19.8051 18.3806 19.7005 18.2909ZM2.04087 8.52392C2.04087 7.2417 2.42109 5.98828 3.13343 4.92216C3.84578 3.85603 4.85826 3.02509 6.04284 2.53441C7.22743 2.04373 8.53091 1.91534 9.78846 2.16549C11.046 2.41564 12.2011 3.03308 13.1078 3.93975C14.0144 4.84641 14.6319 6.00157 14.882 7.25915C15.1321 8.51673 15.0038 9.82024 14.5131 11.0049C14.0224 12.1895 13.1915 13.202 12.1254 13.9143C11.0593 14.6267 9.80591 15.0069 8.52372 15.0069C6.80436 15.0069 5.15543 14.3239 3.93966 13.1081C2.72389 11.8923 2.04087 10.2433 2.04087 8.52392V8.52392Z" fill="#16205B"/>
</svg>
