<svg width="20" height="19" viewBox="0 0 20 19" fill="none" xmlns="http://www.w3.org/2000/svg">
<path d="M13.1579 0H6.84211C5.02858 0.00343541 3.29036 0.689358 2.008 1.9076C0.72564 3.12584 0.00361622 4.77715 0 6.5V12.5C0.00361622 14.2229 0.72564 15.8742 2.008 17.0924C3.29036 18.3106 5.02858 18.9966 6.84211 19H13.1579C14.9714 18.9966 16.7096 18.3106 17.992 17.0924C19.2744 15.8742 19.9964 14.2229 20 12.5V6.5C19.9964 4.77715 19.2744 3.12584 17.992 1.9076C16.7096 0.689358 14.9714 0.00343541 13.1579 0V0ZM13.9053 11.79C14.1035 11.9783 14.2148 12.2337 14.2148 12.5C14.2148 12.7663 14.1035 13.0217 13.9053 13.21C13.707 13.3983 13.4382 13.5041 13.1579 13.5041C12.8776 13.5041 12.6087 13.3983 12.4105 13.21L10 10.92L7.58947 13.21C7.39126 13.3983 7.12242 13.5041 6.84211 13.5041C6.56179 13.5041 6.29295 13.3983 6.09474 13.21C5.89652 13.0217 5.78517 12.7663 5.78517 12.5C5.78517 12.2337 5.89652 11.9783 6.09474 11.79L8.50526 9.5L6.09474 7.21C5.89652 7.0217 5.78517 6.7663 5.78517 6.5C5.78517 6.2337 5.89652 5.9783 6.09474 5.79C6.29295 5.6017 6.56179 5.49591 6.84211 5.49591C7.12242 5.49591 7.39126 5.6017 7.58947 5.79L10 8.08L12.4105 5.79C12.6087 5.6017 12.8776 5.49591 13.1579 5.49591C13.4382 5.49591 13.707 5.6017 13.9053 5.79C14.1035 5.9783 14.2148 6.2337 14.2148 6.5C14.2148 6.7663 14.1035 7.0217 13.9053 7.21L11.4947 9.5L13.9053 11.79Z" fill="#16205B"/>
</svg>
